<svg version="1.1" id="Layer_1" xmlns="http://www.w3.org/2000/svg" xmlns:xlink="http://www.w3.org/1999/xlink" x="0px" y="0px"
	 width="100%" viewBox="250 550 1000 420" enable-background="new 0 0 1500 1500" xml:space="preserve">
<!-- Logo Neo - apenas contorno branco, interior transparente (para marca d'água) -->
<path fill="none" stroke="#FFFFFF" stroke-width="12" opacity="1.000000"
	d="
M298.564270,916.571411 
	C294.536102,920.811279 290.755402,924.800049 286.948639,928.763794 
	C286.781891,928.937439 286.376678,928.881958 285.418549,929.048828 
	C285.418549,927.158264 285.418549,925.390747 285.418549,923.623230 
	C285.418762,866.463684 284.648590,809.291077 285.614471,752.147827 
	C286.817963,680.945740 318.719818,626.893433 381.306122,592.562744 
	C447.251007,556.389832 530.499512,567.756226 586.149597,618.993652 
	C597.734741,629.660156 607.738037,641.644104 616.227844,654.901917 
	C617.007507,656.119507 617.907898,657.259705 619.013428,658.799744 
	C656.828003,601.617615 709.104858,571.230469 777.805054,571.929688 
	C817.691833,572.335693 853.262573,585.907043 884.807739,610.590515 
	C815.813843,686.689880 747.174316,762.398315 677.524109,839.221680 
	C686.492432,846.323608 694.547424,853.850159 703.663208,859.733093 
	C758.874023,895.363037 831.300842,883.841187 873.205566,833.232788 
	C875.289673,830.715881 875.659912,828.811035 874.270264,825.737244 
	C830.461609,728.836609 878.121460,617.028748 978.236389,581.622620 
	C1077.526855,546.508118 1186.837402,606.163269 1211.416138,708.877991 
	C1233.566772,801.445740 1180.351196,895.962891 1089.349609,922.337830 
	C1021.794861,941.917236 961.660583,926.335144 910.437134,877.750427 
	C908.780640,876.179321 907.539795,874.170044 905.892883,872.098022 
	C869.762695,909.509888 826.868835,929.453613 775.809875,930.133667 
	C724.946533,930.811096 681.648560,912.177429 644.895630,876.319397 
	C628.419250,894.063232 612.068909,911.671387 595.718628,929.279480 
	C595.325928,929.181519 594.933289,929.083618 594.540588,928.985657 
	C594.540588,926.921692 594.540588,924.857666 594.540588,922.793640 
	C594.539917,871.633301 594.623779,820.472778 594.492798,769.312805 
	C594.446838,751.342651 594.175476,733.429688 589.288635,715.812866 
	C575.610046,666.502319 531.903320,628.748413 480.900055,622.779785 
	C421.089020,615.780396 365.910278,648.770752 344.117889,704.673096 
	C338.379059,719.394592 335.478821,734.711914 335.476227,750.542114 
	C335.469635,790.703796 335.426331,830.865601 335.539978,871.026978 
	C335.551086,874.959106 334.516357,877.891113 331.765991,880.788208 
	C320.644531,892.502441 309.771545,904.452637 298.564270,916.571411 
M1139.489990,829.966614 
	C1161.185181,801.205872 1169.706543,769.014893 1165.199707,733.220520 
	C1155.706909,657.823669 1078.775391,606.100769 1005.094482,625.738586 
	C929.415649,645.908875 889.204407,724.280823 916.584167,797.937988 
	C917.410217,800.160339 917.009827,803.509644 915.894958,805.669678 
	C910.173218,816.756042 904.018921,827.618896 898.046570,838.576599 
	C897.214172,840.103699 896.552246,841.723633 895.483704,843.997986 
	C898.155701,843.997986 899.946960,843.997986 901.738159,843.997986 
	C915.397095,843.998108 929.059570,843.837463 942.711914,844.136780 
	C945.378540,844.195312 948.579529,845.392090 950.568115,847.153992 
	C1007.110901,897.253052 1092.267456,889.806702 1139.489990,829.966614 
M673.015198,669.524231 
	C643.747131,706.700195 637.904907,747.971863 651.042725,794.054565 
	C702.365234,737.332336 752.782349,681.610840 803.459229,625.602234 
	C761.842041,614.659363 708.383484,626.542358 673.015198,669.524231 
z"/>
</svg>
